<svg width="200" height="200" viewBox="0 0 200 200" fill="none" xmlns="http://www.w3.org/2000/svg">
<g clip-path="url(#clip0_803_20)">
<path d="M198.613 70.4672C198.137 69.0831 196.452 68.0063 195.045 68.0063C188.953 68.0063 182.862 68.0063 176.771 68.0063C175.598 68.0063 174.234 68.7558 173.536 69.8068C169.693 60.6722 165.271 51.2696 161.023 44.7506C160.259 43.5775 159.107 42.7094 157.768 42.2978C156.994 42.0599 138.369 36.4641 99.9993 36.4641C61.6309 36.4641 43.0057 42.0599 42.2318 42.2978C40.8936 42.7094 39.7416 43.5775 38.9773 44.7511C34.7288 51.2711 30.3074 60.6736 26.4638 69.8073C25.7665 68.7562 24.4025 68.0063 23.2294 68.0063C17.1378 68.0063 11.0466 68.0063 4.95501 68.0063C3.5484 68.0063 1.86325 69.0831 1.38704 70.4672C-0.46323 75.8553 -0.462273 78.9404 1.38752 84.329C1.86325 85.7131 3.5484 86.7899 4.95501 86.7899C8.1578 86.7899 11.3601 86.7899 14.5629 86.7899C10.0904 91.2648 7.31594 97.4369 7.31594 104.248C7.31594 104.567 7.33748 104.884 7.38008 105.2L7.95823 109.449C8.15062 110.865 8.7594 112.13 9.64386 113.141V122.802H9.08581C7.76439 122.802 6.69281 123.874 6.69281 125.195V153.825C6.69281 159.18 11.0495 163.536 16.4041 163.536H35.8224C41.1769 163.536 45.5336 159.179 45.5336 153.825V141.52H155.463V153.825C155.463 159.18 159.82 163.536 165.174 163.536H184.592C189.948 163.536 194.304 159.179 194.304 153.825V125.195C194.304 123.874 193.232 122.802 191.911 122.802H191.352V114.08C192.775 112.98 193.777 111.348 194.035 109.449L194.613 105.2C194.656 104.884 194.677 104.566 194.677 104.248C194.677 97.4364 191.903 91.2644 187.43 86.7894C189.968 86.7894 192.506 86.7894 195.044 86.7894C196.45 86.7894 198.135 85.7126 198.611 84.3285C200.463 78.9404 200.462 75.8553 198.613 70.4672ZM47.8056 53.2094C53.4478 51.8621 70.6841 48.4353 99.9998 48.4353C129.327 48.4353 146.566 51.8645 152.195 53.2089C156.191 59.8495 160.391 69.2243 163.971 78.0153C154.571 76.4885 136.058 74.7469 100.499 74.7469C62.7087 74.7469 44.4644 76.7431 35.8898 78.3575C39.498 69.4708 43.7552 59.9399 47.8056 53.2094ZM14.6735 136.176V129.954H31.6638L33.4581 136.176H14.6735ZM14.4303 122.802V111.04L47.4495 113.166L50.6714 122.802H14.4303ZM141.085 135.213H59.9122L57.4249 127.128H143.573L141.085 135.213ZM145.28 122.802H55.7178L53.2956 115.559H147.701L145.28 122.802ZM51.8215 111.02L49.3486 102.982H151.649L149.176 111.02H51.8215ZM186.324 136.176H167.539L169.333 129.954H186.323V136.176H186.324ZM186.567 122.802H150.326L153.548 113.166L186.567 111.04V122.802Z" fill="white"/>
</g>
<defs>
<clipPath id="clip0_803_20">
<rect width="200" height="200" fill="white"/>
</clipPath>
</defs>
</svg>
