<svg width="194" height="161" viewBox="0 0 194 161" fill="none" xmlns="http://www.w3.org/2000/svg">
<g clip-path="url(#clip0_804_37)">
<path d="M44.9675 174.599C45.6761 175.214 46.5495 175.515 47.4198 175.515C48.4705 175.515 49.5166 175.075 50.2542 174.219C50.8365 173.549 64.3637 157.658 54.1073 144.743C48.418 137.58 52.6218 133.419 53.536 132.643C55.1274 131.35 55.3856 129.01 54.1033 127.398C52.8125 125.78 50.4543 125.516 48.8331 126.804C44.9031 129.932 39.7176 138.686 48.2343 149.409C54.6197 157.448 44.6818 169.197 44.5845 169.311C43.2348 170.871 43.4035 173.241 44.9675 174.599Z" fill="white"/>
<path d="M77.7827 174.599C78.4913 175.214 79.3647 175.515 80.235 175.515C81.2858 175.515 82.3318 175.075 83.0695 174.219C83.6517 173.549 97.1789 157.658 86.9225 144.743C81.2332 137.58 85.4378 133.419 86.3512 132.643C87.9426 131.35 88.2008 129.01 86.9194 127.398C85.6277 125.78 83.2696 125.516 81.6491 126.804C77.7192 129.932 72.5329 138.686 81.0503 149.409C87.4357 157.448 77.4979 169.197 77.4006 169.311C76.05 170.871 76.2187 173.241 77.7827 174.599Z" fill="white"/>
<path d="M119.171 132.643C120.76 131.35 121.02 129.01 119.739 127.398C118.447 125.78 116.088 125.516 114.465 126.804C110.539 129.932 105.353 138.686 113.868 149.409C120.252 157.448 110.315 169.197 110.216 169.311C108.864 170.87 109.033 173.244 110.597 174.598C111.307 175.214 112.18 175.514 113.051 175.514C114.099 175.514 115.146 175.075 115.885 174.222C116.464 173.552 129.993 157.661 119.738 144.75C114.051 137.58 118.255 133.416 119.171 132.643Z" fill="white"/>
<path d="M143.413 174.599C144.123 175.214 144.995 175.515 145.867 175.515C146.914 175.515 147.961 175.075 148.701 174.219C149.28 173.549 162.809 157.658 152.554 144.743C146.863 137.58 151.066 133.419 151.982 132.643C153.571 131.35 153.828 129.01 152.547 127.398C151.256 125.78 148.899 125.516 147.279 126.804C143.346 129.932 138.16 138.686 146.679 149.409C153.066 157.448 143.127 169.197 143.032 169.311C141.68 170.871 141.849 173.241 143.413 174.599Z" fill="white"/>
<path d="M18.752 163.231H40.3878C42.1056 160.492 43.7229 156.694 42.3599 154.983C31.0432 140.733 37.2379 127.362 44.16 121.843C46.1485 120.264 48.6354 119.392 51.17 119.392C54.6166 119.392 57.823 120.938 59.9724 123.633C63.6622 128.27 63.0815 135.016 58.749 138.956C58.8808 139.333 59.2175 140.026 59.9794 140.985C65.6947 148.186 66.2958 156.126 64.618 163.235H73.199C74.9168 160.499 76.5342 156.697 75.1711 154.986C63.8521 140.737 70.0491 127.362 76.9713 121.846C78.9558 120.268 81.4427 119.4 83.9813 119.4C87.4278 119.4 90.6342 120.942 92.7836 123.64C96.4734 128.273 95.8927 135.016 91.5602 138.964C91.6921 139.338 92.0287 140.033 92.7907 140.993C98.5059 148.186 99.1062 156.133 97.4292 163.239H106.013C107.726 160.499 109.345 156.701 107.983 154.99C96.6641 140.74 102.861 127.369 109.785 121.85C111.769 120.272 114.253 119.4 116.795 119.4C120.238 119.4 123.446 120.946 125.596 123.64C129.284 128.277 128.706 135.024 124.372 138.964C124.504 139.34 124.841 140.033 125.603 140.993C131.319 148.193 131.921 156.133 130.243 163.243H138.821C140.542 160.507 142.157 156.705 140.795 154.994C129.474 140.744 135.672 127.369 142.593 121.854C144.578 120.275 147.068 119.408 149.603 119.408C153.053 119.408 156.257 120.953 158.408 123.648C162.1 128.28 161.514 135.024 157.184 138.972C157.316 139.345 157.654 140.04 158.415 141C164.128 148.193 164.729 156.141 163.051 163.246H181.249C191.603 163.246 200.001 154.848 200.001 144.494V43.2363C200.001 32.881 191.603 24.4844 181.249 24.4844H18.752C8.39821 24.4852 0 32.881 0 43.2363V144.494C0 154.833 8.39821 163.231 18.752 163.231ZM26.4094 53.4785H169.859C171.929 53.4785 173.609 55.1594 173.609 57.2288C173.609 59.2981 171.928 60.979 169.859 60.979H26.4094C24.34 60.979 22.6591 59.2981 22.6591 57.2288C22.6591 55.1594 24.3408 53.4785 26.4094 53.4785ZM26.4094 77.0754H169.859C171.929 77.0754 173.609 78.7562 173.609 80.8256C173.609 82.8949 171.928 84.5758 169.859 84.5758H26.4094C24.34 84.5758 22.6591 82.8949 22.6591 80.8256C22.6591 78.7562 24.3408 77.0754 26.4094 77.0754ZM26.4094 100.671H169.859C171.929 100.671 173.609 102.348 173.609 104.421C173.609 106.486 171.928 108.17 169.859 108.17H26.4094C24.34 108.17 22.6591 106.486 22.6591 104.421C22.6591 102.348 24.3408 100.671 26.4094 100.671Z" fill="white"/>
</g>
<defs>
<clipPath id="clip0_804_37">
<rect width="200" height="200" fill="white"/>
</clipPath>
</defs>
</svg>
