<svg width="205" height="187" viewBox="0 0 205 187" fill="none" xmlns="http://www.w3.org/2000/svg">
<path d="M195.682 0H9.31818C4.17206 0 0 3.80573 0 8.5V178.5C0 183.194 4.17206 187 9.31818 187H195.682C200.828 187 205 183.194 205 178.5V8.5C205 3.80573 200.828 0 195.682 0ZM133.937 132.823C137.576 136.142 137.576 141.524 133.937 144.844C132.118 146.503 129.733 147.333 127.348 147.333C124.964 147.333 122.579 146.504 120.76 144.843L71.0629 99.5112C69.3155 97.9172 68.3333 95.7553 68.3333 93.5011C68.3333 91.2469 69.3148 89.0845 71.0629 87.4905L120.76 42.156C124.398 38.8365 130.299 38.8365 133.938 42.156C137.577 45.475 137.577 50.8572 133.938 54.1767L90.8299 93.5011L133.937 132.823Z" fill="white"/>
</svg>
