<svg width="200" height="200" viewBox="0 0 200 200" fill="none" xmlns="http://www.w3.org/2000/svg">
<path d="M2.19751 74.7644L20.1331 63.6144C24.0382 71.3864 29.9509 80.0636 37.9399 89.7627C48.9645 103.147 59.8365 113.379 60.2941 113.808L66.0916 119.245L71.889 113.808C72.3467 113.379 83.2187 103.147 94.2433 89.7627C102.628 79.5831 108.709 70.5364 112.598 62.4737L140.247 74.7644L197.803 38.9831V164.219L140.247 200L59.7543 164.219L2.19751 200V74.7644ZM22.8712 43.2203C22.8712 19.35 42.2221 0 66.0916 0C89.9611 0 109.312 19.35 109.312 43.2203C109.312 67.0907 66.0916 107.627 66.0916 107.627C66.0916 107.627 22.8712 67.0898 22.8712 43.2203ZM66.0916 61.4407C76.6221 61.4407 85.1594 52.9034 85.1594 42.3729C85.1594 31.8424 76.6221 23.3051 66.0916 23.3051C55.5611 23.3051 47.0238 31.8424 47.0238 42.3729C47.0238 52.9034 55.5611 61.4407 66.0916 61.4407Z" fill="#7380FF"/>
</svg>
