<svg width="200" height="200" viewBox="0 0 200 200" fill="none" xmlns="http://www.w3.org/2000/svg">
<path d="M180.368 146.527C183.6 156.992 177.128 169.783 164.59 176.453C150.774 183.796 134.872 180.907 129.078 169.999C123.279 159.092 129.781 144.297 143.593 136.957C150.645 133.209 158.236 132.141 164.749 133.428L164.436 18.9966L72.2576 35.0979L72.2441 166.1C75.4186 176.549 68.9461 189.293 56.4383 195.938C42.6232 203.279 26.7249 200.398 20.9269 189.491C15.1313 178.578 21.6298 163.782 35.445 156.44C42.5047 152.686 50.1028 151.618 56.626 152.916L56.6464 21.6711L180.769 0L180.368 146.527Z" fill="white"/>
</svg>
