<svg width="205" height="187" viewBox="0 0 205 187" fill="none" xmlns="http://www.w3.org/2000/svg">
<path d="M9.31818 187L195.682 187C200.828 187 205 183.194 205 178.5L205 8.5C205 3.80573 200.828 1.3113e-06 195.682 1.3113e-06L9.31818 1.3113e-06C4.17206 1.3113e-06 -1.19209e-06 3.80573 -1.19209e-06 8.5L-1.19209e-06 178.5C-1.19209e-06 183.194 4.17206 187 9.31818 187ZM71.0629 54.1767C67.4239 50.8578 67.4239 45.4756 71.0629 42.156C72.8818 40.4968 75.2667 39.6667 77.6515 39.6667C80.0363 39.6667 82.4212 40.4963 84.2401 42.1566L133.937 87.4888C135.685 89.0828 136.667 91.2447 136.667 93.4989C136.667 95.7531 135.685 97.9155 133.937 99.5095L84.2401 144.844C80.6017 148.164 74.7014 148.164 71.0623 144.844C67.4233 141.525 67.4233 136.143 71.0623 132.823L114.17 93.4989L71.0629 54.1767Z" fill="white"/>
</svg>
