<svg width="200" height="200" viewBox="0 0 200 200" fill="none" xmlns="http://www.w3.org/2000/svg">
<path d="M174.747 154.453C173.317 140.763 161.907 130.013 148.237 130.013C139.69 130.013 131.623 134.3 126.637 141.353C125.667 141.183 124.683 141.1 123.693 141.1C115.96 141.1 109.09 146.357 106.807 153.81C100.45 157.58 96.4199 164.613 96.4199 172.15C96.4199 183.84 105.703 193.347 117.113 193.347H153.027C153.227 193.347 153.42 193.333 153.597 193.32C153.803 193.333 154.01 193.347 154.223 193.347H168.59C179.34 193.347 188.087 184.39 188.087 173.383C188.083 164.717 182.61 157.14 174.747 154.453ZM168.587 186.68L154.08 186.67L153.513 186.65L117.107 186.68C109.373 186.68 103.08 180.16 103.08 172.15C103.08 166.6 106.243 161.45 111.137 159.033L112.587 158.32L112.927 156.737C114.03 151.537 118.557 147.767 123.69 147.767C124.84 147.767 125.983 147.957 127.09 148.327L129.68 149.197L131.04 146.827C134.693 140.473 141.12 136.68 148.233 136.68C159.117 136.68 168.083 145.837 168.227 157.09L168.263 159.8L170.927 160.317C177.003 161.497 181.413 166.99 181.413 173.38C181.417 180.713 175.66 186.68 168.587 186.68Z" fill="white"/>
<path d="M68.5833 183.333C72.2652 183.333 75.25 180.349 75.25 176.667C75.25 172.985 72.2652 170 68.5833 170C64.9014 170 61.9166 172.985 61.9166 176.667C61.9166 180.349 64.9014 183.333 68.5833 183.333Z" fill="white"/>
<path d="M86.4166 172.15C86.4166 165.293 88.72 158.71 92.7433 153.333H18.5833V26.6667H118.583V130C120.457 130 120.947 130.07 122.153 130C123.72 130 123.513 130 125.25 130V14.6833C125.25 6.59 118.663 0 110.567 0H26.6C18.5033 0 11.9166 6.59 11.9166 14.6833V185.313C11.9166 193.41 18.5033 200 26.6 200H103.357C93.3266 194.86 86.4166 184.323 86.4166 172.15ZM78.5833 10H81.9166C83.7566 10 85.25 11.49 85.25 13.3333C85.25 15.1767 83.7566 16.6667 81.9166 16.6667H78.5833C76.7433 16.6667 75.25 15.1767 75.25 13.3333C75.25 11.49 76.7433 10 78.5833 10ZM55.25 10H68.5833C70.4233 10 71.9166 11.49 71.9166 13.3333C71.9166 15.1767 70.4233 16.6667 68.5833 16.6667H55.25C53.41 16.6667 51.9166 15.1767 51.9166 13.3333C51.9166 11.49 53.41 10 55.25 10ZM68.5833 190C61.23 190 55.25 184.02 55.25 176.667C55.25 169.313 61.23 163.333 68.5833 163.333C75.9366 163.333 81.9166 169.313 81.9166 176.667C81.9166 184.02 75.9366 190 68.5833 190Z" fill="white"/>
</svg>
