<svg width="200" height="200" viewBox="0 0 200 200" fill="none" xmlns="http://www.w3.org/2000/svg">
<path d="M166.68 100C166.68 72.2656 149.727 48.5156 125.664 38.4766L119.258 53.8672C137.305 61.4062 150 79.2187 150 100C150 120.82 137.305 138.594 119.219 146.133L125.625 161.523C149.727 151.484 166.68 127.734 166.68 100ZM133.32 100C133.32 86.1328 124.844 74.2578 112.812 69.2578L106.406 84.6484C112.422 87.1484 116.641 93.0859 116.641 100.039C116.641 106.953 112.422 112.891 106.406 115.43L112.812 130.82C124.844 125.742 133.32 113.867 133.32 100ZM138.477 7.69531L132.031 23.0859C162.148 35.625 183.32 65.3125 183.32 100C183.32 134.648 162.148 164.375 132.031 176.914L138.437 192.305C174.609 177.227 200 141.602 200 100C200 58.3984 174.609 22.7734 138.477 7.69531ZM0 58.3203V141.641H33.3203L91.6797 200V0L33.3203 58.3203H0Z" fill="white"/>
</svg>
