<svg width="187" height="205" viewBox="0 0 187 205" fill="none" xmlns="http://www.w3.org/2000/svg">
<g clip-path="url(#clip0_806_4)">
<path d="M187 195.682L187 9.31818C187 4.17206 183.194 0 178.5 0L8.5 0C3.80573 0 1.3113e-06 4.17206 1.3113e-06 9.31818L1.3113e-06 195.682C1.3113e-06 200.828 3.80573 205 8.5 205L178.5 205C183.194 205 187 200.828 187 195.682ZM54.1767 133.937C50.8578 137.576 45.4756 137.576 42.156 133.937C40.4968 132.118 39.6667 129.733 39.6667 127.348C39.6667 124.964 40.4963 122.579 42.1566 120.76L87.4888 71.0629C89.0828 69.3155 91.2447 68.3333 93.4989 68.3333C95.7531 68.3333 97.9155 69.3148 99.5095 71.0629L144.844 120.76C148.164 124.398 148.164 130.299 144.844 133.938C141.525 137.577 136.143 137.577 132.823 133.938L93.4989 90.8299L54.1767 133.937Z" fill="#7380FF"/>
</g>
<defs>
<clipPath id="clip0_806_4">
<rect width="205" height="187" fill="white" transform="translate(187) rotate(90)"/>
</clipPath>
</defs>
</svg>
