<svg width="200" height="200" viewBox="0 0 200 200" fill="none" xmlns="http://www.w3.org/2000/svg">
<g clip-path="url(#clip0_804_137)">
<path d="M186.311 125.607C176.676 117.629 166.753 115.951 157.998 114.471C152.185 113.487 147.433 112.673 143.247 110.265C166.661 105.179 184.235 93.0957 193.241 75.6344C201.877 58.8932 201.301 38.8835 191.666 20.7408C185.825 9.72543 173.142 1.68639 159.356 0.260677C146.11 -1.10806 133.784 3.79223 125.526 13.7249C117.549 23.3606 115.871 33.2836 114.39 42.038C113.415 47.8099 112.603 52.5344 110.237 56.6988C105.156 33.2727 93.0702 15.6901 75.604 6.67881C58.8628 -1.9567 38.8531 -1.38326 20.7068 8.25122C9.69023 14.0947 1.6512 26.7782 0.225482 40.5662C-1.14325 53.811 3.75824 66.1357 13.6897 74.3929C23.3266 82.3714 33.2497 84.0492 42.004 85.5295C47.8184 86.5127 52.5708 87.3274 56.7582 89.7363C33.343 94.8209 15.7689 106.904 6.76121 124.366C-1.87429 141.107 -1.29964 161.117 8.33483 179.26C14.1771 190.277 26.8618 198.316 40.6498 199.741C42.1119 199.892 43.5606 199.967 44.996 199.967C56.5642 199.967 67.1298 195.112 74.4753 186.278C82.4538 176.642 84.1316 166.719 85.6119 157.964C86.5878 152.193 87.3989 147.467 89.7654 143.302C94.8463 166.729 106.932 184.311 124.398 193.321C132.277 197.386 140.879 199.41 149.671 199.41C159.56 199.41 169.689 196.848 179.294 191.748C190.311 185.905 198.349 173.221 199.774 159.433C201.143 146.189 196.242 133.864 186.311 125.607ZM100 122.621C87.5262 122.621 77.3777 112.473 77.3777 100C77.3777 87.5274 87.5262 77.3789 100 77.3789C112.474 77.3789 122.622 87.5274 122.622 100C122.622 112.473 112.474 122.621 100 122.621ZM132.32 45.0688C133.578 37.6275 134.664 31.2008 139.519 25.3367C145.412 18.2506 153.304 17.916 157.483 18.3488C165.163 19.1429 172.613 23.6298 175.602 29.2659C182.502 42.2586 183.027 55.7653 177.078 67.2983C170.711 79.6436 157.726 88.364 140.076 92.3489C138.171 82.3495 132.607 73.634 124.831 67.6511C129.779 60.0024 131.156 51.9476 132.32 45.0688ZM25.3016 60.3989C18.2154 54.5069 17.882 46.6158 18.3148 42.4368C19.1089 34.7542 23.5958 27.3044 29.232 24.316C42.2271 17.4165 55.735 16.8928 67.2655 22.8405C79.6302 29.2187 88.3603 42.2344 92.3356 59.9261C82.358 61.8307 73.6619 67.3783 67.6826 75.1288C60.0157 70.1485 51.9343 68.7652 45.036 67.599C37.5935 66.3406 31.1657 65.2543 25.3016 60.3989ZM67.6814 154.931C66.423 162.373 65.3355 168.799 60.4801 174.665C54.5881 181.751 46.6921 182.084 42.5192 181.651C34.8378 180.857 27.3868 176.37 24.3984 170.735C17.4977 157.741 16.974 144.235 22.9229 132.702C29.2902 120.358 42.2743 111.636 59.9236 107.654C61.8294 117.653 67.3941 126.367 75.17 132.35C70.2224 139.998 68.844 148.054 67.6814 154.931ZM181.686 157.563C180.892 165.246 176.405 172.696 170.77 175.684C157.775 182.585 144.27 183.108 132.736 177.159C120.371 170.781 111.641 157.766 107.667 140.073C117.644 138.168 126.341 132.622 132.32 124.869C139.987 129.85 148.068 131.234 154.965 132.4C162.406 133.658 168.833 134.745 174.698 139.6C181.785 145.493 182.118 153.384 181.686 157.563Z" fill="white"/>
</g>
<defs>
<clipPath id="clip0_804_137">
<rect width="200" height="200" fill="white"/>
</clipPath>
</defs>
</svg>
